<svg height="12" viewBox="0 0 12 12" width="12" xmlns="http://www.w3.org/2000/svg"><path d="m5.89822944 2.00684662.10177056-.00684662c.37969577 0 .69349096.28215388.74315338.64822944l.00684662.10177056v2.499l2.5.001c.37969577 0 .69349096.28215388.74315338.64822944l.00684662.10177056c0 .37969577-.28215388.69349096-.64822944.74315338l-.10177056.00684662-2.5-.001v2.501c0 .37969577-.28215388.69349096-.64822944.74315338l-.10177056.00684662c-.37969577 0-.69349096-.28215388-.74315338-.64822944l-.00684662-.10177056v-2.501l-2.5.001c-.37969577 0-.69349096-.28215388-.74315338-.64822944l-.00684662-.10177056c0-.37969577.28215388-.69349096.64822944-.74315338l.10177056-.00684662 2.5-.001v-2.499c0-.37969577.28215388-.69349096.64822944-.74315338l.10177056-.00684662z" fill="#212121"/></svg>