<svg fill="none" height="16" viewBox="0 0 16 16" width="16" xmlns="http://www.w3.org/2000/svg"><g fill="#212121"><path d="m6.5 7v4c0 .2761.22386.5.5.5s.5-.2239.5-.5v-4c0-.27614-.22386-.5-.5-.5s-.5.22386-.5.5z"/><path d="m9 6.5c.27614 0 .5.22386.5.5v4c0 .2761-.22386.5-.5.5s-.5-.2239-.5-.5v-4c0-.27614.22386-.5.5-.5z"/><path d="m10 4h3c.2761 0 .5.22386.5.5s-.2239.5-.5.5h-.5525l-.7529 6.7761c-.1407 1.2661-1.2108 2.2239-2.48469 2.2239h-2.41983c-1.27387 0-2.34403-.9578-2.48471-2.2239l-.7529-6.7761h-.55247c-.27614 0-.5-.22386-.5-.5s.22386-.5.5-.5h3c0-1.10457.89543-2 2-2s2 .89543 2 2zm-2-1c-.55228 0-1 .44772-1 1h2c0-.55228-.44771-1-1-1zm-3.44137 2 .74062 6.6656c.08441.7597.7265 1.3344 1.49083 1.3344h2.41983c.76432 0 1.40639-.5747 1.49079-1.3344l.7407-6.6656z"/></g></svg>