<svg height="16" viewBox="0 0 16 16" width="16" xmlns="http://www.w3.org/2000/svg"><path d="m13.6568542 2.34314575c.7810486.78104858.7810486 2.04737854 0 2.82842713l-7.38646006 7.38646012c-.32039706.320397-.72184676.547694-1.16142789.6575893l-2.2909993.5727498c-.36619023.0915476-.69788662-.2401488-.60633906-.6063391l.57274982-2.2909992c.10989529-.4395812.33719224-.8410309.6575893-1.16142794l7.38646009-7.38646011c.7810486-.78104858 2.0473786-.78104858 2.8284271 0zm-3.5356101 2.12121356-5.97217031 5.97235329c-.19223823.1922383-.32861641.4331081-.39455358.6968568l-.3706368 1.4825472 1.48254721-.3706368c.26374868-.0659372.5046185-.2023154.69685674-.3945536l5.97195674-5.97256689zm1.4142898-1.41410678-.7072898.70710678 1.414 1.414.7075034-.70689322c.3905243-.39052429.3905243-1.02368927 0-1.41421356s-1.0236893-.39052429-1.4142136 0z" fill="#212121"/></svg>