<svg height="20" viewBox="0 0 20 20" width="20" xmlns="http://www.w3.org/2000/svg"><path d="m8.5 3c3.0375661 0 5.5 2.46243388 5.5 5.5 0 1.24832096-.4158777 2.3995085-1.1166416 3.3225711l4.1469717 4.1470988c.2928932.2928932.2928932.767767 0 1.0606602-.2662666.2662665-.6829303.2904726-.9765418.0726181l-.0841184-.0726181-4.1470988-4.1469717c-.9230626.7007639-2.07425014 1.1166416-3.3225711 1.1166416-3.03756612 0-5.5-2.4624339-5.5-5.5 0-3.03756612 2.46243388-5.5 5.5-5.5zm0 1.5c-2.209139 0-4 1.790861-4 4s1.790861 4 4 4 4-1.790861 4-4-1.790861-4-4-4z" fill="#212121"/></svg>